<?xml version="1.0" encoding="UTF-8" standalone="no"?>
<svg width="107px" height="94px" viewBox="0 0 107 94" version="1.1" xmlns="http://www.w3.org/2000/svg" xmlns:xlink="http://www.w3.org/1999/xlink" xmlns:sketch="http://www.bohemiancoding.com/sketch/ns">
    <!-- Generator: Sketch 3.3.1 (12002) - http://www.bohemiancoding.com/sketch -->
    <title>outsourcing-rent</title>
    <desc>Created with Sketch.</desc>
    <defs></defs>
    <g id="Page-1" stroke="none" stroke-width="1" fill="none" fill-rule="evenodd" sketch:type="MSPage">
        <g id="outsourcing-rent" sketch:type="MSLayerGroup" fill="#000000">
            <g id="Group" sketch:type="MSShapeGroup">
                <path d="M19.6068147,56.891056 L14.028972,56.891056 L14.028972,63.32592 L19.4410769,63.32592 C21.4867972,63.32592 23.5321434,62.79576 23.5321434,60.109616 C23.5321434,57.555072 21.9843846,56.891056 19.6068147,56.891056 L19.6068147,56.891056 Z" id="Shape"></path>
                <path d="M104.273371,37.497352 L92.5568706,37.497352 L59.5312832,8.638976 C59.7164755,8.036624 59.8470455,7.409832 59.8470455,6.749576 C59.8470455,3.226456 57.0055594,0.370736 53.5,0.370736 C49.9944406,0.370736 47.1529545,3.226456 47.1529545,6.749576 C47.1529545,7.409832 47.2838986,8.036624 47.4687168,8.638976 L14.4431294,37.497352 L2.72662937,37.497352 C1.32440559,37.497352 0.187062937,38.640392 0.187062937,40.04964 L0.187062937,91.077352 C0.187062937,92.4866 1.32440559,93.62964 2.72662937,93.62964 L104.273371,93.62964 C105.675594,93.62964 106.812937,92.4866 106.812937,91.077352 L106.812937,40.04964 C106.812937,38.640392 105.675594,37.497352 104.273371,37.497352 L104.273371,37.497352 Z M50.7917028,12.49824 C51.6166503,12.888904 52.5257762,13.128416 53.5,13.128416 C54.4742238,13.128416 55.3837238,12.888904 56.2082972,12.49824 L84.8221923,37.497352 L22.1774336,37.497352 L50.7917028,12.49824 L50.7917028,12.49824 Z M28.123042,69.992024 C28.123042,72.7466 28.8462273,73.775712 28.8462273,74.90108 C28.8462273,76.161432 27.5607308,77.02548 26.3066608,77.02548 C23.3368497,77.02548 23.1041434,74.140808 23.1041434,73.176744 C23.1041434,68.996376 22.3476608,67.30588 19.3763531,67.30588 L14.028972,67.30588 L14.028972,74.305496 C14.028972,75.930944 12.9739371,77.025104 11.3229196,77.025104 C9.6719021,77.025104 8.61686713,75.930944 8.61686713,74.305496 L8.61686713,55.895784 C8.61686713,53.475096 9.86981469,52.711064 11.7857133,52.711064 L20.7950385,52.711064 C27.2288811,52.711064 28.9446224,56.26088 28.9446224,59.34596 C28.9446224,61.931712 27.4279161,64.486256 24.8546783,65.085224 L24.8546783,65.150272 C27.626951,65.546576 28.123042,67.57096 28.123042,69.992024 L28.123042,69.992024 Z M49.341965,76.595336 L36.3713951,76.595336 C34.4566189,76.595336 33.202549,75.831304 33.202549,73.410616 L33.202549,55.895784 C33.202549,53.475096 34.4566189,52.711064 36.3713951,52.711064 L49.0782063,52.711064 C50.6607587,52.711064 51.8179301,53.176176 51.8179301,54.900512 C51.8179301,56.625976 50.6611329,57.08996 49.0782063,57.08996 L38.6146538,57.08996 L38.6146538,62.2656 L47.7893427,62.2656 C49.211021,62.2656 50.3311538,62.661904 50.3311538,64.355032 C50.3311538,66.045528 49.211021,66.445592 47.7893427,66.445592 L38.6146538,66.445592 L38.6146538,72.21644 L49.341965,72.21644 C50.9282587,72.21644 52.0828112,72.680424 52.0828112,74.405888 C52.0828112,76.130224 50.9278846,76.595336 49.341965,76.595336 L49.341965,76.595336 Z M76.4402762,73.640728 C76.4402762,75.796336 75.5146888,77.02548 73.2366364,77.02548 C71.5208951,77.02548 70.9585839,76.660384 70.2668252,75.566224 L60.8594301,60.639776 L60.7935839,60.639776 L60.7935839,74.405512 C60.7935839,76.161056 59.8043951,77.025104 58.187049,77.025104 C56.5697028,77.025104 55.580514,76.161056 55.580514,74.405512 L55.580514,55.465264 C55.580514,53.20964 56.6692203,52.280544 58.9786993,52.280544 C60.1021993,52.280544 61.0925105,52.711064 61.6847517,53.706336 L71.157993,69.065184 L71.2227168,69.065184 L71.2227168,54.900512 C71.2227168,53.141208 72.213028,52.28092 73.832993,52.28092 C75.4503392,52.28092 76.4406503,53.141584 76.4406503,54.900512 L76.4406503,73.640728 L76.4402762,73.640728 Z M97.6924965,57.289992 L92.5778217,57.289992 L92.5778217,74.305872 C92.5778217,75.93132 91.5190455,77.02548 89.8717692,77.02548 C88.2196294,77.02548 87.1645944,75.93132 87.1645944,74.305872 L87.1645944,57.289992 L82.0473007,57.289992 C80.4980455,57.289992 79.2406084,56.490992 79.2406084,55.000528 C79.2406084,53.506304 80.4980455,52.711064 82.0473007,52.711064 L97.6928706,52.711064 C99.2443706,52.711064 100.498815,53.506304 100.498815,55.000528 C100.498441,56.490992 99.2443706,57.289992 97.6924965,57.289992 L97.6924965,57.289992 Z" id="Shape"></path>
            </g>
        </g>
    </g>
</svg>