<?xml version="1.0" encoding="UTF-8" standalone="no"?>
<svg width="109px" height="121px" viewBox="0 0 109 121" version="1.1" xmlns="http://www.w3.org/2000/svg" xmlns:xlink="http://www.w3.org/1999/xlink" xmlns:sketch="http://www.bohemiancoding.com/sketch/ns">
    <!-- Generator: Sketch 3.3.1 (12002) - http://www.bohemiancoding.com/sketch -->
    <title>outsourcing-sintez</title>
    <desc>Created with Sketch.</desc>
    <defs></defs>
    <g id="Page-1" stroke="none" stroke-width="1" fill="none" fill-rule="evenodd" sketch:type="MSPage">
        <g id="outsourcing-sintez" sketch:type="MSLayerGroup" fill="#000000">
            <g id="Group" sketch:type="MSShapeGroup">
                <path d="M88.5670059,96.4534903 C93.9062894,96.4534903 93.8234665,91.6946566 93.8234665,91.0969381 L93.8234665,62.4681239 L82.5035591,62.4681239 L82.5035591,91.0969381 C82.5035591,92.0197504 83.2251476,96.4534903 88.5670059,96.4534903 L88.5670059,96.4534903 Z" id="Shape"></path>
                <path d="M108.871474,24.9279274 L67.4504016,24.9279274 L67.4504016,34.6383381 L73.1076732,34.6383381 L73.1076732,44.1210973 L59.2921378,44.1210973 L49.4619685,44.1210973 L35.6303406,44.1210973 L35.6303406,35.0732956 L41.136128,35.0732956 L41.136128,24.4925416 L0.0218858268,24.4925416 L0.0218858268,35.0769363 L5.52509843,35.0769363 L5.52509843,90.7812673 C5.52509843,94.5123504 8.45522441,105.165704 21.4652756,105.165704 C25.8059646,105.165704 29.2673583,103.907733 31.7466791,101.429696 C34.2583996,98.9186779 35.6378504,95.1550425 35.6303406,90.7812673 L35.6303406,53.9368743 L49.4619685,53.9368743 L49.4619685,111.080356 L10.3796752,111.080356 L10.3796752,120.896133 L98.3735728,120.896133 L98.3735728,111.080356 L59.2923524,111.080356 L59.2923524,53.9368743 L73.1078878,53.9368743 L73.1078878,90.7819097 C73.1078878,94.5129929 76.0393012,105.166347 89.0506398,105.166347 C93.3926161,105.166347 96.8527224,103.908375 99.3307559,101.430338 C101.841189,98.9193204 103.224287,95.155685 103.214417,90.7819097 L103.214417,34.6385522 L108.874264,34.6385522 L108.874264,24.9281416 L108.871474,24.9281416 L108.871474,24.9279274 Z M28.1162067,97.8114743 C26.6329055,99.2945274 24.3954016,100.047083 21.4652756,100.047083 C10.9508524,100.047083 10.6564665,90.8767823 10.6564665,90.7842655 L10.6564665,35.0773646 L30.4989724,35.0773646 L30.4989724,90.8493699 C30.5039075,93.7953451 29.6572264,96.2686708 28.1162067,97.8114743 L28.1162067,97.8114743 Z M98.0828346,90.8493699 C98.0877697,93.7953451 97.240874,96.2686708 95.7000689,97.8114743 C94.2169823,99.2945274 91.9794783,100.047083 89.0506398,100.047083 C78.5349291,100.047083 78.2392559,90.8767823 78.2392559,90.7842655 L78.2392559,34.9848478 L98.0828346,34.9848478 L98.0828346,90.8493699 L98.0828346,90.8493699 Z" id="Shape"></path>
                <path d="M14.9209843,91.0969381 C14.9209843,92.0197504 15.6412854,96.4534903 20.9829291,96.4534903 C26.3247874,96.4534903 26.2370295,91.6946566 26.2370295,91.0969381 L26.2370295,62.4681239 L14.9209843,62.4681239 L14.9209843,91.0969381 L14.9209843,91.0969381 Z" id="Shape"></path>
                <path d="M23.7589961,16.6391062 C23.7589961,20.1577434 26.6277559,23.0210531 30.1530906,23.0210531 C33.6784252,23.0210531 36.5458976,20.1575292 36.5458976,16.6391062 C36.5458976,13.1206832 33.6782106,10.2571593 30.1530906,10.2571593 C26.6279705,10.2571593 23.7589961,13.1206832 23.7589961,16.6391062 L23.7589961,16.6391062 Z M30.1556654,15.3762088 C30.8508622,15.3762088 31.4173189,15.9426602 31.4173189,16.6365363 C31.4173189,17.3306265 30.8508622,17.8968637 30.1556654,17.8968637 C29.4604685,17.8968637 28.892939,17.3304124 28.892939,16.6365363 C28.892939,15.9426602 29.4578937,15.3762088 30.1556654,15.3762088 L30.1556654,15.3762088 Z" id="Shape"></path>
                <path d="M13.530376,21.6457221 C14.3998012,21.6457221 15.2617165,21.5020212 16.0935925,21.2229717 C18.1206063,20.5389469 19.7590394,19.1098619 20.7063524,17.196777 C21.6560256,15.283692 21.8012874,13.1155434 21.117248,11.0949504 C20.0160906,7.84272743 16.9681673,5.65830265 13.5329508,5.65830265 C12.659878,5.65830265 11.7979626,5.80200354 10.9699488,6.08083894 C8.94293504,6.76486372 7.3055748,8.19394867 6.35718898,10.1057487 C5.40773031,12.0214035 5.26354134,14.1882673 5.94629331,16.2088602 C7.04358858,19.4612973 10.0915118,21.6457221 13.530376,21.6457221 L13.530376,21.6457221 Z M10.9570748,12.3779788 C11.2952323,11.6913841 11.8852913,11.1776159 12.6146043,10.9336885 C12.9141398,10.8311062 13.2222579,10.7799221 13.535311,10.7799221 C14.7667106,10.7799221 15.8616457,11.566315 16.2577362,12.7343398 C16.500626,13.4581982 16.4467697,14.2396655 16.1086122,14.9262602 C15.7678799,15.6126407 15.1803957,16.1240531 14.4512972,16.3705504 C12.958126,16.8695416 11.3005965,16.0315363 10.8081654,14.5698991 C10.5614134,13.8434708 10.6152697,13.0669292 10.9570748,12.3779788 L10.9570748,12.3779788 Z" id="Shape"></path>
                <path d="M24.9391142,9.12318584 C25.4240354,9.12318584 25.9038071,9.04437522 26.3709193,8.88803894 C28.7060512,8.09650619 29.9601949,5.56064602 29.1720906,3.23873097 C28.4030827,0.959433628 25.7660551,-0.328520354 23.5096693,0.434315044 C22.3758976,0.813162832 21.4627008,1.61219115 20.9314331,2.67998938 C20.4001654,3.74778761 20.3237795,4.95950088 20.7059232,6.08854867 C21.3187264,7.90162124 23.0200276,9.12318584 24.9391142,9.12318584 L24.9391142,9.12318584 Z M24.7262638,4.03540354 C24.7927795,4.01163186 24.8653031,3.99921062 24.9393287,3.99921062 C25.2249173,3.99921062 25.4755315,4.18060354 25.5682244,4.45322832 C25.6246555,4.61577522 25.6122106,4.79823894 25.5319626,4.95457522 C25.4555768,5.11326726 25.3165374,5.23341062 24.9419035,5.32335752 C24.6550276,5.32335752 24.4007657,5.14089381 24.3106476,4.87704956 C24.1952106,4.52925487 24.3803819,4.15297699 24.7262638,4.03540354 L24.7262638,4.03540354 Z" id="Shape"></path>
                <path d="M78.8855315,22.5434779 C79.0608327,22.559754 79.2311988,22.5646796 79.4067146,22.5646796 C82.7140492,22.5646796 85.5100709,19.9864159 85.7733445,16.6954301 C85.9110965,14.9950053 85.3798287,13.3431947 84.2724488,12.0453894 C83.1650689,10.7462991 81.6165394,9.95605133 79.912878,9.81963186 C76.3851831,9.51959469 73.3085079,12.2066513 73.0276398,15.6687504 C72.8875276,17.3691752 73.4237303,19.0173451 74.5311102,20.3164354 C75.6384902,21.6170248 77.1844449,22.4085575 78.8855315,22.5434779 L78.8855315,22.5434779 Z M79.4918976,14.9262602 L79.5019823,14.9262602 C79.9532165,14.9637381 80.2388051,15.2175168 80.3641122,15.3663575 C80.4894193,15.5151982 80.6947598,15.8327965 80.6595709,16.285315 C80.6072165,16.9329327 80.0583543,17.4432743 79.4069291,17.4432743 L79.2966417,17.4407044 C78.845622,17.4045115 78.5649685,17.1481628 78.4396614,17.0006071 C78.3143543,16.8517664 78.1040787,16.5341681 78.141628,16.0840053 C78.1914075,15.4327469 78.7402697,14.9262602 79.4918976,14.9262602 L79.4918976,14.9262602 Z" id="Shape"></path>
                <path d="M88.7723465,17.4970283 C89.5640984,19.4788584 91.0825886,21.0355823 93.0469488,21.8782991 C94.0539114,22.3109009 95.1164469,22.5284867 96.2088071,22.5308425 C99.4110039,22.5308425 102.297144,20.6340336 103.56502,17.6968389 C104.411701,15.7349257 104.43938,13.5631363 103.645053,11.5787363 C102.853516,9.59433628 101.335026,8.0401823 99.3706654,7.19746549 C98.3634882,6.76486372 97.3009528,6.54727788 96.2111673,6.54727788 C93.0063957,6.54727788 90.1178957,8.44408673 88.8549547,11.3812814 C88.0108484,13.3406248 87.9805945,15.5151982 88.7723465,17.4970283 L88.7723465,17.4970283 Z M93.5704921,13.4044442 C94.023872,12.3503522 95.0613031,11.6688973 96.2113819,11.6688973 C96.599748,11.6688973 96.9806043,11.747708 97.3462264,11.9040442 C98.0502205,12.2066513 98.5939331,12.7643221 98.8795217,13.4770442 C99.1653248,14.1884814 99.1552402,14.9699487 98.8494823,15.6738903 C98.2405413,17.0817735 96.5143504,17.788285 95.0735335,17.1742903 C94.3695394,16.8693274 93.823252,16.3116566 93.537878,15.5989345 C93.2546496,14.8874973 93.2647343,14.1083858 93.5704921,13.4044442 L93.5704921,13.4044442 Z" id="Shape"></path>
                <path d="M83.7963248,8.7593292 C84.3576319,9.00068673 84.9489783,9.12318584 85.5602795,9.12318584 C87.3493386,9.12318584 88.9626673,8.06288319 89.6692362,6.42370796 C90.1402106,5.32828319 90.1554449,4.11421416 89.7142953,3.0076531 C89.271,1.90237699 88.4238898,1.03331858 87.3291693,0.56580885 C85.1193445,-0.384630088 82.4033563,0.700729204 81.4611929,2.89778938 C80.9850689,3.9919292 80.9700492,5.20342832 81.4111988,6.31127434 C81.8469843,7.42019115 82.6990295,8.2879646 83.7963248,8.7593292 L83.7963248,8.7593292 Z M84.954128,4.40054513 C85.0592657,4.15790265 85.2948602,4.00156637 85.5602795,4.00156637 C85.653187,4.00156637 85.7433051,4.01912743 85.8259134,4.05532035 C85.9836201,4.12149558 86.111502,4.25534513 86.1767303,4.41660708 C86.2419587,4.58043894 86.2368091,4.76418761 86.1717953,4.92052389 C86.0314685,5.24818761 85.6104882,5.40452389 85.3000098,5.26938938 C85.1395138,5.20064425 85.0116319,5.06679469 84.9491929,4.90553274 C84.8813898,4.7442708 84.88375,4.56052212 84.954128,4.40054513 L84.954128,4.40054513 Z" id="Shape"></path>
            </g>
        </g>
    </g>
</svg>