<?xml version="1.0" encoding="utf-8"?>
<!-- Generator: Adobe Illustrator 16.0.0, SVG Export Plug-In . SVG Version: 6.00 Build 0)  -->
<!DOCTYPE svg PUBLIC "-//W3C//DTD SVG 1.1//EN" "http://www.w3.org/Graphics/SVG/1.1/DTD/svg11.dtd">
<svg version="1.1" xmlns="http://www.w3.org/2000/svg" xmlns:xlink="http://www.w3.org/1999/xlink" x="0px" y="0px"
	 width="382.481px" height="434.979px" viewBox="0 0 382.481 434.979" enable-background="new 0 0 382.481 434.979"
	 xml:space="preserve">
<g id="Layer_9" display="none">
	<g display="inline">
		<path fill="#0085C8" d="M372.534,318.601c0,2.75-1.948,6.125-4.33,7.5l-171.051,98.773c-2.382,1.375-6.279,1.375-8.66,0
			l-171.07-98.75c-2.381-1.375-4.33-4.75-4.331-7.5l-0.019-197.525c0-2.75,1.948-6.125,4.33-7.5l171.059-98.775
			c2.382-1.375,6.279-1.375,8.661,0l171.069,98.747c2.382,1.375,4.331,4.75,4.331,7.5L372.534,318.601z"/>
	</g>
	<g display="inline">
		<g>
			<path fill="#FFFFFF" d="M183.5,302.944c0,1.65-1.35,3-3,3h-25.969c-1.65,0-3-1.35-3-3v-46.793c0-1.65,1.35-3,3-3H180.5
				c1.65,0,3,1.35,3,3V302.944z"/>
		</g>
		<g>
			<path fill="#FFFFFF" d="M221.848,263.765c0,1.65-1.35,3-3,3h-17.619c-1.65,0-3-1.35-3-3v-44.297c0-1.65,1.35-3,3-3h17.619
				c1.65,0,3,1.35,3,3V263.765z"/>
		</g>
		<g>
			<path fill="#FFFFFF" d="M254.637,155.39c0,1.65-1.35,3-3,3h-21.24c-1.65,0-3-1.35-3-3V91.636c0-1.65,1.35-3,3-3h21.24
				c1.65,0,3,1.35,3,3V155.39z"/>
		</g>
		<g>
			<path fill="#FFFFFF" d="M217.676,345.187c0,1.65-1.35,3-3,3h-8.734c-1.65,0-3-1.35-3-3v-52.629c0-1.65,1.35-3,3-3h8.734
				c1.65,0,3,1.35,3,3V345.187z"/>
		</g>
		<path fill="#FFFFFF" d="M200.022,372.179h-65.158c-7.352,0-13.336-5.977-13.336-13.328V213.597c0-7.352,5.984-13.34,13.336-13.34
			h65.158c7.361,0,13.35,5.988,13.35,13.34v145.254C213.372,366.202,207.383,372.179,200.022,372.179z M134.864,206.929
			c-3.678,0-6.668,2.988-6.668,6.668v145.254c0,3.66,2.99,6.668,6.668,6.668h65.158c3.686,0,6.674-3.008,6.674-6.668V213.597
			c0-3.68-2.988-6.668-6.674-6.668H134.864z"/>
		<rect x="136.717" y="199.147" fill="#FFFFFF" width="2.779" height="9.168"/>
		<rect x="133.934" y="364.265" fill="#FFFFFF" width="2.783" height="9.168"/>
		<rect x="144.077" y="364.265" fill="#FFFFFF" width="2.779" height="9.168"/>
		<rect x="187.989" y="364.265" fill="#FFFFFF" width="2.781" height="9.168"/>
		<rect x="198.27" y="364.265" fill="#FFFFFF" width="2.777" height="9.168"/>
		<path fill="#FFFFFF" d="M145.465,368.448c0,2.66-2.141,4.797-4.793,4.797c-2.648,0-4.789-2.137-4.789-4.797
			c0-2.637,2.141-4.793,4.789-4.793C143.325,363.655,145.465,365.812,145.465,368.448z"/>
		<polygon fill="#FFFFFF" points="180.715,356.944 176.821,356.944 176.821,344.999 158.067,344.999 158.067,378.202 
			176.821,378.202 176.821,366.812 180.715,366.812 		"/>
		<rect x="119.997" y="331.374" fill="#FFFFFF" width="9.164" height="2.918"/>
		<polygon fill="#FFFFFF" points="137.778,274.819 132.598,274.819 124.856,253.151 117.25,274.819 110.961,274.819 
			110.961,282.468 117.497,282.468 117.497,326.101 132.217,326.101 132.217,282.468 137.778,282.468 		"/>
		<path fill="#FFFFFF" d="M170.778,326.101l-6.674-0.004l0.064-98.061c0.006-3.494,2.396-7.244,5.566-8.719l62.654-29.131
			l2.811,6.057l-62.646,29.133c-0.832,0.385-1.705,1.752-1.705,2.666L170.778,326.101z"/>
		<path fill="#FFFFFF" d="M173.28,317.065c0,3.219-2.607,5.836-5.836,5.836c-3.221,0-5.83-2.617-5.83-5.836
			c0-3.227,2.609-5.84,5.83-5.84C170.672,311.226,173.28,313.839,173.28,317.065z"/>
		<g>
			<path fill="#FFFFFF" d="M239.348,212.243c0,1.1-0.9,2-2,2h-3.777c-1.1,0-2-0.9-2-2v-22.58c0-1.1,0.9-2,2-2h3.777c1.1,0,2,0.9,2,2
				V212.243z"/>
		</g>
		<polygon fill="#FFFFFF" points="227.067,162.558 218.174,162.558 211.875,162.558 211.875,150.235 214.922,150.235 
			214.922,145.788 213.422,145.788 213.422,122.632 207.356,122.632 207.356,145.788 205.858,145.788 205.858,150.235 
			208.907,150.235 208.907,162.558 202.612,162.558 193.715,162.558 193.715,170.89 202.612,170.89 202.612,225.362 
			218.174,225.362 218.174,170.89 227.067,170.89 		"/>
		<path fill="#FFFFFF" d="M223.059,301.792h-8.658c-2.951,0-5.342-2.391-5.342-5.344v-32.797c0-2.941,2.391-5.336,5.342-5.336h8.658
			c2.945,0,5.344,2.395,5.344,5.336v32.797C228.403,299.401,226.004,301.792,223.059,301.792z M214.401,260.987
			c-1.471,0-2.67,1.195-2.67,2.664v32.797c0,1.477,1.199,2.676,2.67,2.676h8.658c1.467,0,2.674-1.199,2.674-2.676v-32.797
			c0-1.469-1.207-2.664-2.674-2.664H214.401z"/>
		<path fill="#FFFFFF" d="M231.452,282.554h-17.051c-2.951,0-5.342-2.402-5.342-5.344v-95.645c0-2.941,2.391-5.338,5.342-5.338
			h17.051c2.943,0,5.346,2.396,5.346,5.338v95.645C236.797,280.151,234.395,282.554,231.452,282.554z M214.401,178.899
			c-1.471,0-2.67,1.195-2.67,2.666v95.645c0,1.473,1.199,2.668,2.67,2.668h17.051c1.475,0,2.678-1.195,2.678-2.668v-95.645
			c0-1.471-1.203-2.666-2.678-2.666H214.401z"/>
		<path fill="#FFFFFF" d="M237.407,370.593h-32.148v-4.004h32.148c1.109,0,2.012-0.902,2.012-2.004V148.501h4.004v216.084
			C243.422,367.897,240.723,370.593,237.407,370.593z"/>
		<path fill="#FFFFFF" d="M222.926,281.214c0,1.629-1.324,2.957-2.957,2.957c-1.625,0-2.955-1.328-2.955-2.957
			s1.33-2.953,2.955-2.953C221.602,278.261,222.926,279.585,222.926,281.214z"/>
		<rect x="239.348" y="71.69" fill="#FFFFFF" width="4.443" height="20.742"/>
		<path fill="#FFFFFF" d="M246.477,80.667c0,2.713-2.188,4.91-4.902,4.91c-2.717,0-4.908-2.197-4.908-4.91
			c0-2.711,2.191-4.91,4.908-4.91C244.29,75.757,246.477,77.956,246.477,80.667z"/>
		<path fill="#FFFFFF" d="M274.647,68.075c0,3.627-2.947,6.574-6.584,6.574c-3.625,0-6.576-2.947-6.576-6.574
			c0-3.633,2.951-6.58,6.576-6.58C271.7,61.495,274.647,64.442,274.647,68.075z"/>
		<path fill="#FFFFFF" d="M264.059,93.769H251.95v-2.672h12.109c1.473,0,2.666-1.199,2.666-2.668V68.722h2.674v19.707
			C269.399,91.372,267.004,93.769,264.059,93.769z"/>
		<polygon fill="#FFFFFF" points="178.528,134.673 178.528,129.3 182.047,129.3 182.047,125.228 180.661,125.228 180.661,101.882 
			178.528,101.882 178.528,71.69 176.491,71.69 176.491,101.882 174.356,101.882 174.356,125.228 172.965,125.228 172.965,129.3 
			176.491,129.3 176.491,134.673 171.54,134.673 171.54,163.386 183.489,163.386 183.489,134.673 		"/>
		<path fill="#FFFFFF" d="M205.258,180.581h-23.746c-3.311,0-6.008-2.691-6.008-6.006v-15.076h4.004v15.076
			c0,1.102,0.898,2.002,2.004,2.002h23.746V180.581z"/>
	</g>
</g>
<g id="Layer_6">
	<g>
		<path fill="#0085C8" d="M372.532,318.596c0,2.75-1.948,6.125-4.33,7.5l-171.051,98.779c-2.382,1.375-6.279,1.375-8.66,0
			L17.423,326.121c-2.381-1.375-4.33-4.75-4.331-7.5l-0.017-197.52c0-2.75,1.948-6.125,4.33-7.5L188.46,14.823
			c2.382-1.375,6.279-1.375,8.66-0.001l171.07,98.749c2.381,1.375,4.33,4.75,4.331,7.5L372.532,318.596z"/>
	</g>
	<g>
		<path fill="#FFFFFF" d="M322.11,328.479c0-0.027,0.006-0.051,0.006-0.08v-36.193c0-4.729-3.85-8.574-8.576-8.574H257.34v-11.051
			h-2.537V152.413c0-6.965-4.922-10.957-13.494-10.957c-8.273,0-13.133,3.727-13.465,10.242
			c-7.377,0.477-13.051,3.557-13.051,12.445v77.969h-13.652c-3.15,0-5.715,2.562-5.715,5.715v24.453h-1.906v-1.031
			c0-4.203-3.418-7.621-7.621-7.621h-14.053c-4.205,0-7.619,3.418-7.619,7.621v0.707h-2.621v-2.971h-2.381v-3.451h-1.43v3.451
			h-2.381v2.971h-2.383v-2.971h-2.383v-3.451h-1.426v3.451h-2.383v2.971h-2.5v-2.971h-2.5v-3.451h-1.43v3.451h-2.262v2.971h-17.52
			c0.172-1.758,0.18-3.527,0.18-5V119.431c0-11.021-5.693-12.023-8.137-12.023c-2.32,0-7.543,0.914-8.086,10.393
			c-4.84,0.207-8.865,1.891-8.865,14.826v117.189h-4.605c-3.678,0-6.668,2.992-6.668,6.668v50.27h-2.412
			c-0.309-6.291-5.006-11.293-10.766-11.293c-5.771,0-10.471,5.014-10.766,11.316l-5.109,0.004v25.404h222.424v0.105h52.395v-3.811
			H322.11z M86.352,306.745v-50.262c0-2.627,2.137-4.762,4.764-4.762h4.605v51.447c0,1.217,0.041,2.4,0.105,3.568L86.352,306.745z
			 M162.717,282.753v1.984c-0.256,0.057-0.521,0.086-0.795,0.086H124.93c-1.488,0-2.766-0.85-3.393-2.07H162.717z M124.93,288.636
			h36.992c0.27,0,0.531-0.055,0.795-0.082v2.453h-46.992v-8.254h1.787C118.28,286.112,121.305,288.636,124.93,288.636z
			 M107.954,117.804c0.438-6.74,3.621-6.588,4.719-6.588c1.178,0,4.77-0.188,4.77,8.215v147.525c0,2.23-0.076,3.82-0.229,5h-1.488
			v-139.33C115.725,119.847,112.549,118.048,107.954,117.804z M162.717,306.667l-6.826,0.008v-3.752h-35.406v3.787l-4.525,0.008
			c0-2.484-0.076-5.857-0.076-5.857h46.992L162.717,306.667z M162.717,297.991h-46.992l-0.053-2.422l47.203,0.053L162.717,297.991z
			 M189.711,272.28h-8.102v-0.324h-13.574v-0.707c0-2.1,1.707-3.811,3.811-3.811h14.053c2.102,0,3.812,1.711,3.812,3.811V272.28z
			 M211.301,306.614l-9.211,0.01v-6.408h9.211V306.614z M211.301,296.407h-9.211v-3.725h9.211V296.407z M214.793,272.581h-3.492
			v15.26h-9.211V272.28h-2.855v-24.453c0-1.051,0.855-1.904,1.906-1.904h13.652V272.581z M241.309,147.171
			c7.777,0,7.777,3.807,7.777,5.242v120.168h-3.811V164.144c0-8.35-5.014-11.572-11.732-12.332
			C233.637,150.134,234.448,147.171,241.309,147.171z M259.497,306.565l-2.156,0.002v-10.553h6.906c2.59,0,4.695,2.082,4.75,4.66
			C264.465,301.757,260.934,303.897,259.497,306.565z M305.692,328.479h-1.676v-21.961l-12.48,0.012
			c-1.488-2.727-5.162-4.902-9.855-5.945c0.242-2.398,2.25-4.283,4.715-4.283h14.523c2.629,0,4.766,2.135,4.766,4.764v23.402
			C305.684,326.573,305.78,327.78,305.692,328.479z M316.362,328.479h-8.721c-0.004-0.973-0.055-2.26-0.055-4.012v-23.402
			c0-3.676-2.99-6.668-6.668-6.668h-14.523c-3.398,0-6.18,2.561-6.586,5.848c-1.375-0.205-2.797-0.34-4.285-0.34
			c-1.621,0-3.176,0.152-4.656,0.393c-0.256-3.447-3.113-6.188-6.621-6.188h-6.906v-4.764h56.199c1.578,0,2.859,1.283,2.859,2.859
			v31.195C316.399,326.093,316.467,327.614,316.362,328.479z"/>
		<g>
			<line fill="none" stroke="#FFFFFF" stroke-miterlimit="10" x1="112.702" y1="262.751" x2="149.696" y2="262.751"/>
			<path fill="none" stroke="#FFFFFF" stroke-miterlimit="10" d="M158.868,265.772c0,0-6.531-3.021-8.871-3.021
				c-2.344,0-9.17,3.021-9.17,3.021"/>
			<line fill="none" stroke="#FFFFFF" stroke-miterlimit="10" x1="149.997" y1="262.751" x2="149.997" y2="266.784"/>
		</g>
		<polyline fill="none" stroke="#FFFFFF" stroke-miterlimit="10" points="112.702,245.769 155.891,245.769 167.797,255.292 
			217.807,255.292 		"/>
		<polyline fill="none" stroke="#FFFFFF" stroke-miterlimit="10" points="112.702,239.101 155.891,239.101 167.797,248.624 
			217.807,248.624 		"/>
		<line fill="none" stroke="#FFFFFF" stroke-miterlimit="10" x1="241.309" y1="255.292" x2="262.42" y2="255.292"/>
		<line fill="none" stroke="#FFFFFF" stroke-miterlimit="10" x1="241.309" y1="238.622" x2="262.42" y2="238.622"/>
		<line fill="none" stroke="#FFFFFF" stroke-miterlimit="10" x1="241.309" y1="223.062" x2="262.42" y2="223.062"/>
		<line fill="none" stroke="#FFFFFF" stroke-miterlimit="10" x1="241.309" y1="206.87" x2="262.42" y2="206.87"/>
		<line fill="none" stroke="#FFFFFF" stroke-miterlimit="10" x1="241.309" y1="189.722" x2="262.42" y2="189.722"/>
		<line fill="none" stroke="#FFFFFF" stroke-miterlimit="10" x1="241.309" y1="173.847" x2="262.42" y2="173.847"/>
		<line fill="none" stroke="#FFFFFF" stroke-miterlimit="10" x1="208.602" y1="238.622" x2="233.206" y2="238.622"/>
		<line fill="none" stroke="#FFFFFF" stroke-miterlimit="10" x1="208.602" y1="223.062" x2="233.206" y2="223.062"/>
		<line fill="none" stroke="#FFFFFF" stroke-miterlimit="10" x1="208.602" y1="206.87" x2="233.206" y2="206.87"/>
		<line fill="none" stroke="#FFFFFF" stroke-miterlimit="10" x1="208.602" y1="189.722" x2="233.206" y2="189.722"/>
		<line fill="none" stroke="#FFFFFF" stroke-miterlimit="10" x1="208.602" y1="173.847" x2="233.206" y2="173.847"/>
		<polyline fill="none" stroke="#FFFFFF" stroke-miterlimit="10" points="241.309,166.546 262.104,166.546 262.104,285.937 		"/>
		<polyline fill="none" stroke="#FFFFFF" stroke-miterlimit="10" points="217.807,168.134 208.602,168.134 208.602,289.69 		"/>
		<polyline fill="none" stroke="#FFFFFF" stroke-miterlimit="10" points="254.165,173.847 262.104,189.722 254.165,206.87 
			262.104,223.062 254.165,238.622 262.104,255.292 		"/>
		<line fill="none" stroke="#FFFFFF" stroke-miterlimit="10" x1="89.051" y1="135.429" x2="98.575" y2="135.429"/>
		<line fill="none" stroke="#FFFFFF" stroke-miterlimit="10" x1="89.051" y1="151.624" x2="98.575" y2="151.624"/>
		<line fill="none" stroke="#FFFFFF" stroke-miterlimit="10" x1="89.051" y1="166.546" x2="98.575" y2="166.546"/>
		<line fill="none" stroke="#FFFFFF" stroke-miterlimit="10" x1="89.051" y1="182.741" x2="98.575" y2="182.741"/>
		<line fill="none" stroke="#FFFFFF" stroke-miterlimit="10" x1="89.051" y1="198.3" x2="98.575" y2="198.3"/>
		<line fill="none" stroke="#FFFFFF" stroke-miterlimit="10" x1="89.051" y1="214.042" x2="98.575" y2="214.042"/>
		<line fill="none" stroke="#FFFFFF" stroke-miterlimit="10" x1="89.051" y1="228.909" x2="98.575" y2="228.909"/>
		<line fill="none" stroke="#FFFFFF" stroke-miterlimit="10" x1="89.051" y1="245.769" x2="98.575" y2="245.769"/>
		<line fill="none" stroke="#FFFFFF" stroke-miterlimit="10" x1="89.051" y1="261.171" x2="98.575" y2="261.171"/>
		<line fill="none" stroke="#FFFFFF" stroke-miterlimit="10" x1="89.051" y1="276.413" x2="98.575" y2="276.413"/>
		<line fill="none" stroke="#FFFFFF" stroke-miterlimit="10" x1="89.051" y1="292.604" x2="98.575" y2="292.604"/>
		<polyline fill="none" stroke="#FFFFFF" stroke-miterlimit="10" points="98.575,127.81 91.59,127.81 91.59,310.388 		"/>
		<g>
			<line fill="#FFFFFF" x1="123.342" y1="239.101" x2="123.342" y2="245.769"/>
			<line fill="#FFFFFF" x1="126.588" y1="239.1" x2="126.588" y2="245.769"/>
			<line fill="#FFFFFF" x1="129.834" y1="239.101" x2="129.834" y2="245.769"/>
			<line fill="#FFFFFF" x1="133.081" y1="239.101" x2="133.081" y2="245.769"/>
			<line fill="#FFFFFF" x1="136.327" y1="239.101" x2="136.327" y2="245.769"/>
			<line fill="#FFFFFF" x1="139.573" y1="239.101" x2="139.573" y2="245.769"/>
			<line fill="#FFFFFF" x1="142.819" y1="239.101" x2="142.819" y2="245.769"/>
			<line fill="#FFFFFF" x1="146.065" y1="239.101" x2="146.065" y2="245.769"/>
			<line fill="#FFFFFF" x1="149.311" y1="239.101" x2="149.311" y2="245.769"/>
			<line fill="#FFFFFF" x1="152.557" y1="239.101" x2="152.557" y2="245.769"/>
		</g>
		<g>
			<line fill="#FFFFFF" x1="155.731" y1="239.101" x2="155.731" y2="245.769"/>
			<line fill="#FFFFFF" x1="158.748" y1="241.481" x2="158.748" y2="248.149"/>
			<line fill="#FFFFFF" x1="161.764" y1="243.862" x2="161.764" y2="250.53"/>
			<line fill="#FFFFFF" x1="164.781" y1="246.243" x2="164.781" y2="252.911"/>
			<line fill="#FFFFFF" x1="167.797" y1="248.624" x2="167.797" y2="255.292"/>
		</g>
		<g>
			<line fill="#FFFFFF" x1="170.815" y1="248.624" x2="170.815" y2="255.292"/>
			<line fill="#FFFFFF" x1="174.347" y1="248.624" x2="174.347" y2="255.292"/>
			<line fill="#FFFFFF" x1="177.879" y1="248.624" x2="177.879" y2="255.292"/>
			<line fill="#FFFFFF" x1="181.412" y1="248.624" x2="181.412" y2="255.292"/>
			<line fill="#FFFFFF" x1="184.945" y1="248.624" x2="184.945" y2="255.292"/>
			<line fill="#FFFFFF" x1="188.477" y1="248.624" x2="188.477" y2="255.292"/>
			<line fill="#FFFFFF" x1="192.009" y1="248.624" x2="192.009" y2="255.292"/>
			<line fill="#FFFFFF" x1="195.542" y1="248.624" x2="195.542" y2="255.292"/>
			<line fill="#FFFFFF" x1="199.074" y1="248.624" x2="199.074" y2="255.292"/>
			<line fill="#FFFFFF" x1="202.606" y1="248.624" x2="202.606" y2="255.292"/>
			<line fill="#FFFFFF" x1="206.139" y1="248.624" x2="206.139" y2="255.292"/>
			<line fill="#FFFFFF" x1="209.671" y1="248.624" x2="209.671" y2="255.292"/>
			<line fill="#FFFFFF" x1="213.204" y1="248.624" x2="213.204" y2="255.292"/>
		</g>
	</g>
</g>
<g id="Layer_4" display="none">
	<g id="Layer_10" display="inline">
		<g>
			<path fill="#0085C8" d="M372.532,318.597c0,2.75-1.948,6.125-4.33,7.5l-171.051,98.777c-2.382,1.375-6.279,1.375-8.66,0
				l-171.07-98.752c-2.381-1.375-4.33-4.75-4.331-7.5l-0.015-197.523c0-2.75,1.948-6.125,4.33-7.5L188.46,14.824
				c2.382-1.375,6.279-1.375,8.66-0.001l171.07,98.751c2.381,1.375,4.33,4.75,4.331,7.5L372.532,318.597z"/>
		</g>
	</g>
	<g display="inline">
		<g>
			<line fill="none" stroke="#FFFFFF" stroke-miterlimit="10" x1="169.28" y1="278.808" x2="125.776" y2="304.181"/>
			<line fill="none" stroke="#FFFFFF" stroke-miterlimit="10" x1="171.735" y1="283.985" x2="128.229" y2="309.358"/>
			<line fill="none" stroke="#FFFFFF" stroke-miterlimit="10" x1="171.512" y1="231.327" x2="171.735" y2="281.692"/>
			<line fill="none" stroke="#FFFFFF" stroke-miterlimit="10" x1="127.78" y1="209.411" x2="171.512" y2="234.397"/>
			<line fill="none" stroke="#FFFFFF" stroke-miterlimit="10" x1="132.624" y1="206.534" x2="176.352" y2="231.519"/>
			<line fill="none" stroke="#FFFFFF" stroke-miterlimit="10" x1="84.278" y1="231.718" x2="127.78" y2="206.341"/>
			<line fill="none" stroke="#FFFFFF" stroke-miterlimit="10" x1="81.567" y1="282.083" x2="81.344" y2="231.718"/>
			<line fill="none" stroke="#FFFFFF" stroke-miterlimit="10" x1="86.729" y1="282.083" x2="86.504" y2="231.718"/>
			<line fill="none" stroke="#FFFFFF" stroke-miterlimit="10" x1="128.229" y1="307.067" x2="84.5" y2="282.083"/>
			<line fill="none" stroke="#FFFFFF" stroke-miterlimit="10" x1="258.856" y1="283.985" x2="215.352" y2="309.358"/>
			<line fill="none" stroke="#FFFFFF" stroke-miterlimit="10" x1="255.864" y1="278.808" x2="212.358" y2="304.181"/>
			<line fill="none" stroke="#FFFFFF" stroke-miterlimit="10" x1="258.965" y1="231.327" x2="259.192" y2="281.692"/>
			<line fill="none" stroke="#FFFFFF" stroke-miterlimit="10" x1="216.788" y1="205.565" x2="260.516" y2="230.552"/>
			<line fill="none" stroke="#FFFFFF" stroke-miterlimit="10" x1="213.684" y1="210.39" x2="257.415" y2="235.376"/>
			<polyline fill="none" stroke="#FFFFFF" stroke-miterlimit="10" points="215.686,307.067 171.958,282.083 171.735,231.718 
				215.235,206.341 			"/>
			<line fill="none" stroke="#FFFFFF" stroke-miterlimit="10" x1="304.245" y1="205.952" x2="260.743" y2="231.327"/>
			<line fill="none" stroke="#FFFFFF" stroke-miterlimit="10" x1="301.606" y1="158.417" x2="301.817" y2="206.362"/>
			<line fill="none" stroke="#FFFFFF" stroke-miterlimit="10" x1="306.249" y1="157.599" x2="306.461" y2="205.544"/>
			<polyline fill="none" stroke="#FFFFFF" stroke-miterlimit="10" points="260.29,130.599 304.02,155.587 304.032,158.009 			"/>
			<line fill="none" stroke="#FFFFFF" stroke-miterlimit="10" x1="218.965" y1="158.009" x2="262.469" y2="132.628"/>
			<line fill="none" stroke="#FFFFFF" stroke-miterlimit="10" x1="215.352" y1="154.003" x2="258.852" y2="128.622"/>
			<line fill="none" stroke="#FFFFFF" stroke-miterlimit="10" x1="217.012" y1="206.341" x2="216.79" y2="155.978"/>
			<line fill="none" stroke="#FFFFFF" stroke-miterlimit="10" x1="84.278" y1="231.636" x2="53.817" y2="214.13"/>
			<line fill="none" stroke="#FFFFFF" stroke-miterlimit="10" x1="84.243" y1="282.681" x2="53.854" y2="300.312"/>
			<line fill="none" stroke="#FFFFFF" stroke-miterlimit="10" x1="127.745" y1="170.653" x2="127.817" y2="205.786"/>
			<line fill="none" stroke="#FFFFFF" stroke-miterlimit="10" x1="127.954" y1="307.067" x2="128.024" y2="342.2"/>
			<line fill="none" stroke="#FFFFFF" stroke-miterlimit="10" x1="258.852" y1="97.495" x2="258.926" y2="132.628"/>
			<line fill="none" stroke="#FFFFFF" stroke-miterlimit="10" x1="216.12" y1="307.067" x2="216.19" y2="342.2"/>
			<line fill="none" stroke="#FFFFFF" stroke-miterlimit="10" x1="302.92" y1="156.286" x2="331.739" y2="136.198"/>
			<line fill="none" stroke="#FFFFFF" stroke-miterlimit="10" x1="301.817" y1="205.964" x2="331.793" y2="224.284"/>
			<line fill="none" stroke="#FFFFFF" stroke-miterlimit="10" x1="256.262" y1="281.673" x2="286.235" y2="299.995"/>
		</g>
		<g>
			<path fill="#FFFFFF" d="M227.176,306.81c0,6.469-5.244,11.715-11.719,11.715c-6.469,0-11.715-5.246-11.715-11.715
				c0-6.475,5.246-11.719,11.715-11.719C221.932,295.091,227.176,300.335,227.176,306.81z"/>
			<path fill="#FFFFFF" d="M270.905,281.825c0,6.465-5.248,11.715-11.717,11.715c-6.471,0-11.719-5.25-11.719-11.715
				c0-6.475,5.248-11.723,11.719-11.723C265.657,270.103,270.905,275.351,270.905,281.825z"/>
			<path fill="#FFFFFF" d="M270.905,232.472c0,6.469-5.248,11.719-11.717,11.719c-6.471,0-11.719-5.25-11.719-11.719
				c0-6.471,5.248-11.719,11.719-11.719C265.657,220.753,270.905,226.001,270.905,232.472z"/>
			<path fill="#FFFFFF" d="M227.176,206.489c0,6.469-5.244,11.715-11.719,11.715c-6.469,0-11.715-5.246-11.715-11.715
				c0-6.477,5.246-11.719,11.715-11.719C221.932,194.771,227.176,200.013,227.176,206.489z"/>
			<path fill="#FFFFFF" d="M227.176,155.997c0,6.469-5.244,11.715-11.719,11.715c-6.469,0-11.715-5.246-11.715-11.715
				c0-6.475,5.246-11.719,11.715-11.719C221.932,144.278,227.176,149.522,227.176,155.997z"/>
			<path fill="#FFFFFF" d="M270.905,131.745c0,6.469-5.248,11.715-11.717,11.715c-6.471,0-11.719-5.246-11.719-11.715
				c0-6.475,5.248-11.719,11.719-11.719C265.657,120.026,270.905,125.271,270.905,131.745z"/>
			<path fill="#FFFFFF" d="M314.633,155.997c0,6.469-5.246,11.715-11.715,11.715c-6.473,0-11.717-5.246-11.717-11.715
				c0-6.475,5.244-11.719,11.717-11.719C309.387,144.278,314.633,149.522,314.633,155.997z"/>
			<path fill="#FFFFFF" d="M314.633,206.489c0,6.469-5.246,11.715-11.715,11.715c-6.473,0-11.717-5.246-11.717-11.715
				c0-6.477,5.244-11.719,11.717-11.719C309.387,194.771,314.633,200.013,314.633,206.489z"/>
			<g>
				<path fill="#FFFFFF" d="M139.704,206.489c0,6.469-5.246,11.715-11.717,11.715s-11.715-5.246-11.715-11.715
					c0-6.477,5.244-11.719,11.715-11.719S139.704,200.013,139.704,206.489z"/>
				<path fill="#FFFFFF" d="M95.993,231.868c0,6.469-5.244,11.715-11.717,11.715c-6.471,0-11.715-5.246-11.715-11.715
					c0-6.475,5.244-11.719,11.715-11.719C90.749,220.149,95.993,225.394,95.993,231.868z"/>
				<path fill="#FFFFFF" d="M183.448,231.868c0,6.469-5.244,11.715-11.719,11.715c-6.469,0-11.717-5.246-11.717-11.715
					c0-6.475,5.248-11.719,11.717-11.719C178.204,220.149,183.448,225.394,183.448,231.868z"/>
				<path fill="#FFFFFF" d="M183.448,281.825c0,6.465-5.244,11.715-11.719,11.715c-6.469,0-11.717-5.25-11.717-11.715
					c0-6.475,5.248-11.723,11.717-11.723C178.204,270.103,183.448,275.351,183.448,281.825z"/>
				<path fill="#FFFFFF" d="M139.723,306.81c0,6.469-5.248,11.715-11.719,11.715c-6.469,0-11.715-5.246-11.715-11.715
					c0-6.475,5.246-11.719,11.715-11.719C134.475,295.091,139.723,300.335,139.723,306.81z"/>
				<path fill="#FFFFFF" d="M95.995,281.825c0,6.465-5.246,11.715-11.717,11.715s-11.717-5.25-11.717-11.715
					c0-6.475,5.246-11.723,11.717-11.723S95.995,275.351,95.995,281.825z"/>
			</g>
			<path fill="#FFFFFF" d="M133.602,170.8c0,3.234-2.621,5.857-5.859,5.857c-3.234,0-5.857-2.623-5.857-5.857
				c0-3.236,2.623-5.857,5.857-5.857C130.981,164.942,133.602,167.563,133.602,170.8z"/>
			<path fill="#FFFFFF" d="M264.708,97.644c0,3.234-2.621,5.857-5.861,5.857c-3.234,0-5.857-2.623-5.857-5.857
				c0-3.236,2.623-5.857,5.857-5.857C262.086,91.786,264.708,94.407,264.708,97.644z"/>
			<circle fill="#FFFFFF" cx="128.23" cy="342.052" r="5.858"/>
			<circle fill="#FFFFFF" cx="216.393" cy="342.052" r="5.857"/>
			<path fill="#FFFFFF" d="M59.711,300.458c0,3.234-2.623,5.855-5.859,5.855c-3.234,0-5.857-2.621-5.857-5.855
				c0-3.238,2.623-5.859,5.857-5.859C57.088,294.599,59.711,297.22,59.711,300.458z"/>
			<path fill="#FFFFFF" d="M329.258,141.653c2.934,1.367,6.418,0.1,7.789-2.836c1.367-2.932,0.102-6.416-2.832-7.783
				c-2.938-1.369-6.418-0.098-7.785,2.834C325.063,136.802,326.329,140.286,329.258,141.653z"/>
			<path fill="#FFFFFF" d="M59.676,214.278c0,3.234-2.621,5.855-5.859,5.855c-3.234,0-5.857-2.621-5.857-5.855
				c0-3.238,2.623-5.859,5.857-5.859C57.055,208.419,59.676,211.04,59.676,214.278z"/>
			<path fill="#FFFFFF" d="M328.981,219.294c-2.84,1.553-3.883,5.113-2.33,7.951s5.111,3.881,7.947,2.33
				c2.844-1.555,3.883-5.113,2.332-7.953C335.375,218.784,331.817,217.739,328.981,219.294z"/>
			<path fill="#FFFFFF" d="M283.422,295.001c-2.838,1.555-3.881,5.111-2.324,7.949c1.549,2.84,5.111,3.887,7.947,2.33
				c2.838-1.553,3.879-5.111,2.33-7.951C289.821,294.489,286.262,293.446,283.422,295.001z"/>
		</g>
	</g>
</g>
<g id="Layer_2" display="none">
	<g display="inline">
		<path fill="#0085C8" d="M372.533,318.594c0,2.75-1.948,6.125-4.33,7.5l-171.053,98.781c-2.382,1.375-6.279,1.375-8.66,0
			L17.422,326.121c-2.381-1.375-4.33-4.75-4.331-7.5l-0.017-197.523c0-2.75,1.948-6.125,4.33-7.5l171.055-98.774
			c2.382-1.375,6.279-1.375,8.66-0.001l171.072,98.749c2.381,1.375,4.33,4.75,4.331,7.5L372.533,318.594z"/>
	</g>
	<g display="inline">
		<path fill="#FFFFFF" d="M192.803,330.516c0,0,71.5,1.5,77.002,0c5.5-1.5,9-6,9.498-17.5c0.5-11.498-62.5-136.001-62.5-136.001
			l0.061-57.814c0,0,6.939-0.188,6.939-4.686c0-4.031-6.998-6-6.998-6h-24.002h-24.002c0,0-6.998,1.969-6.998,6
			c0,4.311,6.498,4.873,6.498,4.873l0.502,57.627c0,0-62.504,123.498-62.5,136.001c0.002,11.512,3.998,16,9.498,17.5
			C121.303,332.016,192.803,330.516,192.803,330.516z"/>
		<path fill="#0085C8" d="M271.426,304.637c-2.625-7.125-30.375-71.169-34.875-71.169c-1.012,0-5.404-0.08-11.688-0.178
			c-2.191-4.191-6.527-7.08-11.584-7.08c-4.938,0-9.189,2.76-11.428,6.791c-21.152-0.178-45.055-0.102-50.426,1.137
			c-9.75,2.25-19.875,37.125-31.5,64.125c-11.625,27,7.125,26.25,7.125,26.25h136.875
			C273.301,324.512,274.051,311.762,271.426,304.637z"/>
		<circle fill="#0085C8" cx="180.113" cy="217.022" r="9.188"/>
		<circle fill="#FFFFFF" cx="187.238" cy="252.512" r="9.75"/>
		<circle fill="#FFFFFF" cx="180.113" cy="305.268" r="8.531"/>
		<circle fill="#FFFFFF" cx="152.363" cy="281.268" r="5.906"/>
		<circle fill="#FFFFFF" cx="225.488" cy="282.861" r="13.875"/>
	</g>
</g>
</svg>
